<?xml version="1.0" encoding="UTF-8" standalone="no"?>
<svg
   width="108"
   height="108"
   viewBox="0 0 108 108"
   fill="none"
   version="1.1"
   id="svg1"
   sodipodi:docname="ic_launcher.svg"
   inkscape:version="1.3.2 (091e20e, 2023-11-25)"
   xmlns:inkscape="http://www.inkscape.org/namespaces/inkscape"
   xmlns:sodipodi="http://sodipodi.sourceforge.net/DTD/sodipodi-0.dtd"
   xmlns="http://www.w3.org/2000/svg"
   xmlns:svg="http://www.w3.org/2000/svg">
  <defs
     id="defs1" />
  <sodipodi:namedview
     id="namedview1"
     pagecolor="#ffffff"
     bordercolor="#000000"
     borderopacity="0.25"
     inkscape:showpageshadow="2"
     inkscape:pageopacity="0.0"
     inkscape:pagecheckerboard="0"
     inkscape:deskcolor="#d1d1d1"
     inkscape:zoom="1.7566945"
     inkscape:cx="11.669644"
     inkscape:cy="47.247829"
     inkscape:window-width="1312"
     inkscape:window-height="449"
     inkscape:window-x="221"
     inkscape:window-y="44"
     inkscape:window-maximized="0"
     inkscape:current-layer="svg1" />
  <path
     d="M 34.430094,65.591556 51.40199,49.99655 c 1.716582,-1.577309 1.686873,-4.107988 -0.06653,-5.652173 l -2.72998,-2.404908 c -0.245513,-0.216124 -0.639208,-0.212516 -0.879617,0.0084 -0.02862,0.0264 -0.05997,0.05018 -0.09405,0.07035 -0.254079,0.151189 -0.69972,0.38371 -0.790853,0.303361 -0.235852,-0.207761 -0.566665,-0.366328 -0.523468,-0.660834 l 0.0097,-0.06559 c 0.01331,-0.09084 0.05195,-0.177261 0.112276,-0.251215 l 0.432517,-0.53047 c 0.119202,-0.146105 0.151099,-0.3355 0.0853,-0.506858 -0.08621,-0.224814 -0.322611,-0.37469 -0.586897,-0.372231 l -0.387133,0.0038 c -0.0904,8.2e-4 -0.179533,0.0182 -0.262099,0.051 l -0.02351,0.0093 c -0.363621,0.144301 -0.784292,-0.03853 -0.88472,-0.384366 -0.039,-0.134134 -0.02333,-0.276303 0.04411,-0.400927 l 0.05596,-0.10347 c 0.186823,-0.345011 0.107172,-0.758729 -0.197577,-1.027161 L 44.42434,37.826259 c -0.116286,-0.102486 -0.249522,-0.187755 -0.395153,-0.253018 l -4.198683,-1.880669 c -0.633922,-0.283847 -1.395612,-0.195134 -1.928376,0.224486 l -0.470065,0.370264 c -0.200128,0.157583 -0.481,0.202185 -0.729064,0.115605 -0.419577,-0.146269 -0.586168,-0.600817 -0.345759,-0.942876 l 0.233483,-0.332221 c 0.330631,-0.470454 0.15201,-1.094392 -0.39005,-1.362825 l -7.375035,-3.65098 c -0.679124,-0.336156 -1.509711,-0.30418 -2.154569,0.08281 L 25.3963,30.962123 c -0.241321,0.144957 -0.567213,0.08806 -0.730705,-0.127575 -0.118838,-0.156928 -0.122848,-0.362229 -0.01021,-0.5226 l 0.308941,-0.439626 c 0.438489,-0.624129 0.194799,-1.4514 -0.529709,-1.798051 -2.410105,-1.152932 -5.624916,-2.698921 -5.706024,-2.770251 -0.09113,-0.08035 -4.351969,-1.958723 -6.894218,-3.073776 -0.31532,-0.138234 -0.690059,-0.100847 -0.964552,0.09544 l -0.252985,0.180869 c -0.214892,0.153647 -0.523469,0.139381 -0.7197701,-0.03345 -0.214891,-0.189395 -0.218537,-0.499478 -0.00802,-0.692809 l 1.0534981,-0.968129 1.444642,-1.096851 c 0.85738,-0.651159 1.894474,-1.081438 3.001377,-1.245417 0.950153,-0.140693 1.923819,-0.08117 2.844081,0.174145 l 4.662186,1.293626 29.203231,8.588863 c 0.624079,0.183656 1.273129,-0.21104 1.316691,-0.800379 0.01203,-0.164798 0.074,-0.323201 0.178985,-0.458483 l 0.757316,-0.975344 c 0.181355,-0.233669 0.383853,-0.453564 0.605671,-0.657226 l 4.09789,-3.765601 c 0.232024,-0.213172 0.503054,-0.388957 0.801424,-0.519483 1.099429,-0.481441 2.416485,-0.289094 3.290269,0.480456 l 2.69444,2.373424 c 0.04557,0.04018 0.07746,0.256299 0.09897,0.519484 0.04666,0.570317 -0.211429,1.122105 -0.656158,1.530739 l -0.06944,0.06362 c -0.355601,0.326809 -0.569399,0.757252 -0.603118,1.21344 l -0.01823,0.247607 c -0.02187,0.296637 -0.160941,0.576221 -0.392055,0.788573 l -0.197212,0.18136 c -0.245694,0.225798 -0.612232,0.307295 -0.946508,0.210548 -0.334458,-0.09675 -0.700813,-0.01525 -0.94669,0.210548 l -0.239498,0.220059 c -0.814001,0.74807 -0.3957,2.009556 0.74073,2.234207 l 5.334201,1.054217 c 0.934479,0.18464 1.908691,-0.07691 2.577973,-0.691825 l 18.35602,-16.44261 c 0.43653,-0.391088 0.91607,-0.741346 1.43116,-1.045198 l 3.00466,-1.773591 c 0.59838,-0.353046 1.24086,-0.641648 1.91434,-0.859575 l 4.07346,-1.318223 c 0.29929,-0.09691 0.6095,-0.163158 0.925006,-0.197758 l 1.10179,-0.120688 c 1.56603,-0.171685 3.01778,0.762336 3.34349,2.151069 0.12231,0.521616 0.0727,1.064056 -0.14307,1.560747 l -2.50489,5.767286 c -0.22674,0.522107 -0.51253,1.021914 -0.85264,1.491548 l -2.341025,3.232668 c -0.31714,0.437986 -0.68003,0.847604 -1.08393,1.223443 l -16.36842,15.231137 c -1.15994,1.079142 -1.49841,2.674161 -0.86248,4.062074 l 1.77728,3.877926 c 0.30657,0.669196 1.27404,0.838258 1.83688,0.32107 0.29691,-0.273024 0.39697,-0.673295 0.25863,-1.034376 l -0.0778,-0.202513 c -0.11938,-0.311395 -0.033,-0.656898 0.22328,-0.892371 0.11756,-0.108226 0.26465,-0.186771 0.4265,-0.228258 l 0.42231,-0.107898 c 0.42979,-0.109865 0.82038,-0.318774 1.13297,-0.606064 0.38877,-0.357145 0.89566,-0.591142 1.44482,-0.667064 l 0.12395,-0.01722 c 0.9764,-0.134954 1.96282,0.179556 2.62682,0.837438 l 0.53513,0.530142 c 1.3608,1.348559 1.53122,3.355983 0.41356,4.874587 l -0.32498,0.44143 c -0.18117,0.246296 -0.38823,0.476686 -0.61788,0.687726 l -3.57461,3.284652 c -0.17406,0.159879 -0.38403,0.284339 -0.61587,0.36518 -0.87707,0.305492 -1.32635,1.181957 -1.01523,1.980368 l 9.53307,24.453285 1.94606,5.728259 c 0.36198,1.065696 0.33774,2.207478 -0.0696,3.259892 l -0.13105,0.338779 c -0.19593,0.50653 -0.51381,0.967965 -0.93101,1.351182 l -2.35525,2.164188 c -0.2641,0.242688 -0.6968,0.246788 -0.96655,0.0092 -0.26976,-0.237605 -0.27431,-0.62689 -0.0102,-0.869578 l 0.20705,-0.190215 c 0.30275,-0.278107 0.36654,-0.70232 0.15693,-1.043067 l -6.48266,-10.535943 c -0.36562,-0.594258 -1.21662,-0.781849 -1.84617,-0.40683 l -0.0441,0.02624 c -0.48282,0.287618 -1.12349,0.23285 -1.53741,-0.131838 -0.48483,-0.427 -0.49303,-1.126532 -0.0184,-1.562715 l 0.31641,-0.290734 c 0.51053,-0.468978 0.62609,-1.180809 0.28634,-1.761784 l -3.76799,-6.441893 c -0.31659,-0.541293 -1.086485,-0.713635 -1.64823,-0.369116 l -0.27595,0.16939 c -0.434705,0.266793 -1.031809,0.11954 -1.254538,-0.309427 -0.120661,-0.232194 -0.104621,-0.50325 0.04283,-0.722489 l 0.460404,-0.685266 c 0.515449,-0.766928 0.480272,-1.73522 -0.08949,-2.470336 l -2.482648,-3.202499 c -0.161487,-0.208252 -0.43434,-0.323037 -0.715577,-0.3009 l -0.140891,0.01099 c -0.474621,0.03755 -0.847173,-0.359441 -0.726696,-0.774307 0.06252,-0.215139 -0.0078,-0.444053 -0.184635,-0.599669 l -0.07291,-0.06428 c -0.341384,-0.300737 -0.889094,-0.29549 -1.223188,0.01164 l -0.292355,0.268597 c -0.296547,0.272532 -0.782651,0.277123 -1.085577,0.01033 -0.25171,-0.221698 -0.303291,-0.569005 -0.125399,-0.842521 l 0.231296,-0.355177 c 0.313775,-0.482116 0.222642,-1.094575 -0.221176,-1.4855 l -1.92145,-1.692585 c -1.893381,-1.667825 -4.931029,-1.638801 -6.784676,0.06444 L 44.603644,74.481811 c -0.346852,0.31861 -0.721956,0.611311 -1.121666,0.875153 l -10.296215,6.794611 c -0.08931,0.05903 -0.173335,0.124459 -0.250981,0.19579 -0.518183,0.476357 -0.708833,1.167854 -0.497769,1.806714 l 4.669113,14.135434 c 0.310946,0.941404 0.04775,1.960697 -0.692612,2.682367 -1.384311,1.34905 -3.815195,1.14506 -4.898221,-0.4111 l -6.217645,-8.933875 c -1.143174,-1.6429 -3.560205,-2.125325 -5.368468,-1.071927 l -1.444095,0.841373 c -0.670921,0.390761 -1.55309,0.311067 -2.124129,-0.192018 -0.571223,-0.502922 -0.678395,-1.294938 -0.258272,-1.906578 l 0.902582,-1.313959 c 1.132785,-1.649295 0.542789,-3.813811 -1.309764,-4.804241 L 5.5106509,77.733995 c -1.641854,-0.87794 -1.936396,-2.90701 -0.600202,-4.134716 0.742552,-0.682478 1.835602,-0.952879 2.861761,-0.708059 l 14.3386961,3.421902 c 0.713572,0.17021 1.462504,0.181852 2.182273,0.03394 1.080474,-0.222027 2.033908,-0.791032 2.681682,-1.600266 l 6.571606,-8.210401 c 0.267749,-0.334352 0.563021,-0.650174 0.883627,-0.944843 z"
     fill="#fff"
     stroke="#fff"
     stroke-width="2.5"
     id="path1" />
</svg>
